HIERARCHY
ROOT Hips
{
    OFFSET 0.000000 0.000000 0.000000
    CHANNELS 6 Xposition Yposition Zposition Zrotation Xrotation Yrotation
    JOINT Spine
    {
        OFFSET -0.000000 8.104110 0.000000
        CHANNELS 3 Zrotation Xrotation Yrotation
        JOINT Spine1
        {
            OFFSET -0.000000 22.417536 0.000000
            CHANNELS 3 Zrotation Xrotation Yrotation
            JOINT Neck
            {
                OFFSET -0.000000 22.325472 2.029588
                CHANNELS 3 Zrotation Xrotation Yrotation
                JOINT Head
                {
                    OFFSET -0.000000 13.836284 -1.976612
                    CHANNELS 3 Zrotation Xrotation Yrotation
                    End Site
                    {
                        OFFSET -0.000000 24.707651 0.000000
                    }
                }
            }
            JOINT LeftShoulder
            {
                OFFSET 3.973640 20.379602 -0.279950
                CHANNELS 3 Zrotation Xrotation Yrotation
                JOINT LeftArm
                {
                    OFFSET 11.493720 0.000000 0.000000
                    CHANNELS 3 Zrotation Xrotation Yrotation
                    JOINT LeftForeArm
                    {
                        OFFSET 31.336695 0.000000 0.000000
                        CHANNELS 3 Zrotation Xrotation Yrotation
                        JOINT LeftHand
                        {
                            OFFSET 29.043781 0.000000 0.000000
                            CHANNELS 3 Zrotation Xrotation Yrotation
                            End Site
                            {
                                OFFSET 14.824592 0.000000 0.000000
                            }
                        }
                    }
                }
            }
            JOINT RightShoulder
            {
                OFFSET -3.921018 20.379602 -0.279950
                CHANNELS 3 Zrotation Xrotation Yrotation
                JOINT RightArm
                {
                    OFFSET -11.493720 0.000000 0.000000
                    CHANNELS 3 Zrotation Xrotation Yrotation
                    JOINT RightForeArm
                    {
                        OFFSET -31.336695 0.000000 0.000000
                        CHANNELS 3 Zrotation Xrotation Yrotation
                        JOINT RightHand
                        {
                            OFFSET -29.043781 0.000000 0.000000
                            CHANNELS 3 Zrotation Xrotation Yrotation
                            End Site
                            {
                                OFFSET -14.824592 0.000000 0.000000
                            }
                        }
                    }
                }
            }
        }
    }
    JOINT LeftUpLeg
    {
        OFFSET 9.883060 0.000000 0.000000
        CHANNELS 3 Zrotation Xrotation Yrotation
        JOINT LeftLeg
        {
            OFFSET -0.000000 -43.587502 0.000000
            CHANNELS 3 Zrotation Xrotation Yrotation
            JOINT LeftFoot
            {
                OFFSET -0.000000 -41.501083 0.000000
                CHANNELS 3 Zrotation Xrotation Yrotation
                JOINT LeftToeBase
                {
                    OFFSET -0.000000 -6.423989 14.824592
                    CHANNELS 3 Zrotation Xrotation Yrotation
                    End Site
                    {
                        OFFSET -0.000000 0.000000 3.953224
                    }
                }
            }
        }
    }
    JOINT RightUpLeg
    {
        OFFSET -9.883060 0.000000 0.000000
        CHANNELS 3 Zrotation Xrotation Yrotation
        JOINT RightLeg
        {
            OFFSET -0.000000 -43.587502 0.000000
            CHANNELS 3 Zrotation Xrotation Yrotation
            JOINT RightFoot
            {
                OFFSET -0.000000 -41.501083 0.000000
                CHANNELS 3 Zrotation Xrotation Yrotation
                JOINT RightToeBase
                {
                    OFFSET -0.000000 -6.423989 14.824592
                    CHANNELS 3 Zrotation Xrotation Yrotation
                    End Site
                    {
                        OFFSET -0.000000 0.000000 3.953224
                    }
                }
            }
        }
    }
}
MOTION
Frames:    5
Frame Time:    0.008333
0.719643    94.572472    82.945259    -1.607732    2.389896    -173.858109    -2.003731    -7.041967    -1.011563    0.073034    3.057248    -0.890237    -0.639221    18.213640    -0.867326    1.098356    8.793559    -0.841732    13.847848    -0.370911    -5.958162    -15.505198    1.433775    2.287644    -0.383874    -2.225039    1.052742    5.611737    -2.412952    -3.907854    -15.276165    0.388132    -3.629798    13.314839    1.134124    2.802663    0.947869    -1.482556    0.119620    3.890863    -1.219700    7.759270    2.735930    10.427674    -4.991557    -0.034673    -4.152847    -3.059127    -4.307259    -0.832141    7.701237    0.000000    0.000000    0.000000    -7.283097    14.119828    0.308376    3.563855    -4.524388    2.882604    2.451073    -4.397868    -16.817942    0.000000    0.000000    0.000000    
0.723599    94.572159    82.947449    -1.609369    2.390843    -173.853256    -2.004083    -7.039299    -1.008393    0.060351    3.052665    -0.886730    -0.628087    18.223074    -0.872690    1.104442    8.795275    -0.846831    13.874044    -0.371707    -5.964122    -15.508432    1.420773    2.285050    -0.385798    -2.236831    1.062759    5.616678    -2.425885    -3.928142    -15.274594    0.373855    -3.637882    13.309653    1.155310    2.795653    0.938699    -1.466673    0.120366    3.928056    -1.201727    7.745256    2.735190    10.427294    -4.991065    -0.030917    -4.159103    -3.037720    -4.318963    -0.812173    7.671338    0.000000    0.000000    0.000000    -7.283996    14.135119    0.342557    3.562971    -4.553193    2.871804    2.461918    -4.392469    -16.849609    0.000000    0.000000    0.000000    
0.728947    94.572342    82.951736    -1.610466    2.377375    -173.837082    -1.999546    -7.052752    -1.021081    0.046476    3.046476    -0.899062    -0.624838    18.240042    -0.865091    1.081895    8.799273    -0.840438    13.870785    -0.374188    -5.949564    -15.484844    1.442552    2.286633    -0.383279    -2.267386    1.063953    5.619828    -2.456442    -3.925733    -15.287549    0.365542    -3.635159    13.334273    1.373972    2.802096    0.885877    -1.574077    0.124465    3.774204    -1.319966    7.732608    2.735052    10.399815    -5.001387    -0.026181    -4.137955    -3.054678    -4.309516    -0.830519    7.682165    0.000000    0.000000    0.000000    -7.281827    14.129563    0.314129    3.566781    -4.565807    2.872968    2.468934    -4.390228    -16.839062    0.000000    0.000000    0.000000    
0.736873    94.574295    82.949287    -1.604713    2.383992    -173.835510    -2.006968    -7.060944    -1.018899    0.057748    3.061945    -0.896633    -0.617267    18.240290    -0.874277    1.076463    8.812900    -0.850428    13.879384    -0.371716    -5.944309    -15.471951    1.449653    2.274274    -0.382219    -2.273865    1.072806    5.590937    -2.462122    -3.929861    -15.295986    0.372934    -3.642051    13.326067    1.382675    2.803049    0.869883    -1.576980    0.124750    3.861091    -1.317196    7.726702    2.748843    10.413380    -5.007872    -0.028978    -4.153728    -3.016136    -4.345236    -0.816869    7.664391    0.000000    0.000000    0.000000    -7.274048    14.154771    0.351719    3.569819    -4.606104    2.807657    2.462655    -4.359399    -16.807796    0.000000    0.000000    0.000000    
0.741671    94.573448    82.953873    -1.605935    2.377867    -173.838608    -2.009071    -7.052221    -1.018875    0.052205    3.027583    -0.896494    -0.621800    18.262699    -0.874012    1.086037    8.827420    -0.849880    13.883963    -0.370648    -5.947921    -15.457548    1.456249    2.282181    -0.384252    -2.261992    1.080062    5.623852    -2.449381    -3.890240    -15.285304    0.381501    -3.638359    13.303470    1.431106    2.802110    0.860567    -1.597687    0.138385    3.853502    -1.339615    7.693145    2.745674    10.400518    -4.999778    -0.018664    -4.145277    -3.023978    -4.336449    -0.821849    7.655528    0.000000    0.000000    0.000000    -7.278221    14.148949    0.377985    3.570117    -4.611570    2.807263    2.474800    -4.364869    -16.826614    0.000000    0.000000    0.000000    
